# xmcd CD database file
#
# Track frame offsets:
#	150
#	44631
#	79279
#	129899
#	160327
#	207205
#	242132
#
# Disc length: 3549 seconds
#
# Revision: 2
# Processed by: cddbd v1.5.2PL0 Copyright (c) Steve Scherf et al.
# Submitted via: CDex 1.70beta2
#
DISCID=5b0ddb07
DTITLE=Nicolas Meier - Silence Talks
DYEAR=2008
DGENRE=Jazz
TTITLE0=October in Anakara (Ankara'da Ekim)
TTITLE1=Silence Talks (Sessizlik Konusuyor)
TTITLE2=Turquoise
TTITLE3=Déjà Vu
TTITLE4=Dance of the Rain (Yagmurun Dansi)
TTITLE5=Deniz's Love (Deniz'in Sevgisi)
TTITLE6=A Rose in the Pyrénées
EXTD=YEAR: 2008
EXTT0=
EXTT1=
EXTT2=
EXTT3=
EXTT4=
EXTT5=
EXTT6=
PLAYORDER=
